<svg width="168" height="84" viewBox="0 0 168 84" fill="none" xmlns="http://www.w3.org/2000/svg">
<path d="M0 18.2841L10.1724 36.4665V47.5573L0.0119 65.7041L0 18.2841Z" fill="#5B57A2"/>
<path d="M39.0578 29.8504L48.5897 24.0082L68.0972 23.99L39.0578 41.7798V29.8504Z" fill="#D90751"/>
<path d="M39.0039 18.1769L39.0578 42.2499L28.8616 35.9849V0L39.0046 18.1769H39.0039Z" fill="#FAB718"/>
<path d="M68.0973 23.9897L48.589 24.0079L39.0039 18.1769L28.8616 0L68.0966 23.9897H68.0973Z" fill="#ED6F26"/>
<path d="M39.0578 65.8048V54.1253L28.8616 47.9793L28.8672 83.9999L39.0578 65.8048Z" fill="#63B22F"/>
<path d="M48.5659 60.0159L10.1717 36.4665L0 18.2841L68.056 59.9921L48.5652 60.0159H48.5659Z" fill="#1487C9"/>
<path d="M28.8681 84L39.0573 65.8049L48.5654 60.0159L68.0555 59.9921L28.8681 84Z" fill="#017F36"/>
<path d="M0.0119629 65.7038L28.945 47.9798L19.2178 42.0116L10.1725 47.557L0.0119629 65.7038Z" fill="#984995"/>
<path fill-rule="evenodd" clip-rule="evenodd" d="M111.22 44.8553C117.784 44.8553 122.659 40.8303 122.659 34.7286C122.659 28.8223 119.062 24.9881 113.051 24.9881C110.277 24.9881 107.988 25.9642 106.264 27.6493C106.676 24.1671 109.621 21.6241 112.863 21.6241C113.611 21.6241 119.245 21.6125 119.245 21.6125L122.431 15.5162C122.431 15.5162 115.358 15.6775 112.07 15.6775C104.558 15.8081 99.4833 22.6365 99.4833 30.9299C99.4833 40.5924 104.432 44.8553 111.22 44.8553ZM111.26 30.3878C113.697 30.3878 115.386 31.9894 115.386 34.7279C115.386 37.1922 113.885 39.2232 111.26 39.2287C108.748 39.2287 107.058 37.3467 107.058 34.7696C107.058 32.0304 108.748 30.3878 111.26 30.3878ZM148.007 23.5846V44.1211H140.674V29.7151H133.613V44.1211H126.28V23.5833L148.007 23.5846ZM89.1959 38.433C91.7826 38.2443 93.5142 37.2456 93.5142 37.2456L96.228 42.2666C94.49 43.3829 91.6384 44.1088 89.5712 44.1854C82.1758 44.3214 77.0314 39.8213 77.0314 33.265C77.0314 26.7914 82.5046 22.184 89.5712 22.184C92.3712 22.184 94.7785 22.9352 96.5859 24.3052C96.2055 24.9792 95.6883 25.913 95.1968 26.8064L94.4097 28.2406L93.6936 29.5504C93.6936 29.5504 91.0895 28.1859 89.1211 28.1859C85.9109 28.1859 83.573 30.0514 83.573 33.306C83.573 36.6433 86.2223 38.5212 89.1959 38.433ZM83.5751 57.942C83.3512 58.2278 83.0566 58.4438 82.7031 58.5894C82.3402 58.737 81.9522 58.8122 81.5605 58.8102C81.1712 58.8157 80.784 58.7507 80.4176 58.6188C80.0884 58.4992 79.7876 58.3125 79.534 58.0712C79.2838 57.8292 79.0873 57.5373 78.9574 57.214C78.8166 56.8606 78.7465 56.4826 78.751 56.1018C78.751 55.7238 78.8159 55.3738 78.9509 55.0422C79.0804 54.71 79.2688 54.4249 79.5046 54.1857C79.6116 54.0749 79.7281 53.9758 79.8532 53.887L79.9298 53.835C80.0101 53.7824 80.0939 53.7331 80.1807 53.688L80.274 53.6415L80.3413 53.6094C80.6654 53.4693 81.0188 53.3934 81.4074 53.3934C81.8258 53.3934 82.2144 53.446 82.5678 53.5506C82.791 53.6163 82.9926 53.7099 83.1731 53.8316C83.2791 53.9034 83.3775 53.9847 83.4688 54.0756L83.0391 54.8037C82.831 54.615 82.5862 54.4721 82.32 54.3832C82.0671 54.3019 81.8025 54.2609 81.5369 54.2616C81.3014 54.2616 81.0776 54.308 80.8598 54.3955C80.6455 54.4817 80.4493 54.6081 80.2825 54.7688C80.1116 54.9329 79.9773 55.1318 79.8874 55.3512C79.7876 55.5775 79.7405 55.8284 79.7405 56.1079C79.7405 56.393 79.7931 56.6494 79.8932 56.8708C79.9941 57.0978 80.1291 57.2906 80.3 57.4533C80.4705 57.6166 80.6708 57.7383 80.9005 57.8204C80.9942 57.8559 81.0899 57.8839 81.1876 57.9044C81.3301 57.9345 81.4778 57.9489 81.6313 57.9489C81.9491 57.9489 82.2383 57.8839 82.4854 57.7616C82.615 57.6987 82.7377 57.6235 82.8518 57.5367C82.953 57.4594 83.0473 57.3733 83.1335 57.2789L83.5751 57.942ZM84.7884 58.6878V53.5041H85.7192V57.3664L88.7468 53.5041H89.6778V58.6885H88.7468V54.8269L85.7192 58.6885L84.7884 58.6878ZM95.8449 57.942C95.6159 58.2305 95.3154 58.4534 94.9733 58.5894C94.7655 58.6735 94.5491 58.7343 94.3287 58.7705C94.1643 58.7972 93.9975 58.8109 93.8303 58.8102C93.6741 58.8122 93.5183 58.8034 93.3641 58.7828C93.1337 58.7528 92.9071 58.6981 92.6877 58.6188C92.6125 58.5914 92.5387 58.5607 92.4666 58.5265C92.3794 58.4848 92.2946 58.4383 92.2126 58.3877C92.0663 58.2968 91.9293 58.1909 91.8038 58.0712C91.5533 57.8292 91.3567 57.5373 91.2269 57.214C91.0864 56.8606 91.016 56.4826 91.0204 56.1018C91.0204 55.7238 91.0854 55.3738 91.2207 55.0422C91.3509 54.71 91.5389 54.4249 91.7744 54.1857C92.0103 53.941 92.2929 53.755 92.6108 53.6094C92.9464 53.4618 93.3101 53.3879 93.6769 53.3934C93.9202 53.3934 94.153 53.4112 94.3748 53.4467L94.505 53.4693C94.5543 53.4789 94.6031 53.4898 94.6513 53.5014L94.7371 53.5226L94.8376 53.5506C95.191 53.6552 95.4911 53.8302 95.7389 54.0756L95.3086 54.8037C95.1011 54.615 94.8564 54.4721 94.5905 54.3832C94.5266 54.3627 94.462 54.3443 94.3967 54.3286C94.3519 54.3183 94.3068 54.3094 94.2613 54.3012C94.2186 54.2937 94.1755 54.2869 94.1325 54.2814L94.0375 54.2711C93.9609 54.2643 93.884 54.2609 93.8071 54.2616C93.3392 54.2629 92.8897 54.4448 92.552 54.7688C92.5083 54.8119 92.4669 54.8563 92.4279 54.9035C92.3818 54.9588 92.3391 55.0176 92.3001 55.0785C92.2447 55.1653 92.1969 55.2562 92.1572 55.3512C92.1354 55.4004 92.1162 55.451 92.0995 55.503C92.08 55.5624 92.0639 55.6233 92.0509 55.6855C92.0236 55.8188 92.0103 55.9589 92.0103 56.1079C92.0103 56.2426 92.0219 56.3704 92.0448 56.4914C92.0585 56.5632 92.0759 56.6316 92.0971 56.6979C92.1162 56.758 92.1384 56.8155 92.1634 56.8708C92.2266 57.0144 92.3039 57.1443 92.3951 57.2612C92.4484 57.3295 92.5066 57.3931 92.5694 57.4533C92.7403 57.6166 92.9413 57.7383 93.1707 57.8204C93.4003 57.9017 93.642 57.9489 93.9007 57.9489C94.0094 57.9489 94.114 57.9413 94.2148 57.9263C94.409 57.8983 94.5884 57.8422 94.7549 57.7616C94.9996 57.6433 95.2197 57.4792 95.4029 57.2789L95.8449 57.942ZM96.3278 53.5041H101.099V54.4249H99.1788V58.6878H98.248V54.4249H96.3278V53.5041ZM106.359 58.1232C106.1 58.3556 105.8 58.5251 105.446 58.6359C105.106 58.7459 104.75 58.8027 104.392 58.8047C104.249 58.8068 104.105 58.7993 103.963 58.7828C103.714 58.7535 103.469 58.6967 103.232 58.6126C102.884 58.4848 102.59 58.3036 102.348 58.0651C102.101 57.8231 101.909 57.5312 101.783 57.2092C101.653 56.877 101.582 56.5044 101.582 56.0963C101.579 55.7347 101.641 55.3758 101.765 55.0368C101.878 54.7175 102.057 54.4263 102.289 54.1802C102.4 54.0661 102.521 53.9622 102.65 53.8705C102.8 53.7646 102.961 53.675 103.132 53.6033C103.326 53.5226 103.536 53.4631 103.763 53.4276C103.928 53.4016 104.102 53.3879 104.286 53.3879C104.394 53.3872 104.502 53.3934 104.608 53.4064C104.704 53.418 104.8 53.4351 104.894 53.457C105.009 53.4843 105.123 53.5199 105.234 53.5629C105.523 53.6703 105.788 53.8343 106.012 54.0462C106.069 54.1016 106.123 54.159 106.174 54.2199C106.216 54.2698 106.256 54.321 106.294 54.3744C106.352 54.4557 106.404 54.5418 106.451 54.63C106.48 54.6847 106.506 54.7408 106.53 54.7975C106.583 54.9178 106.626 55.0429 106.657 55.1735C106.702 55.3587 106.725 55.5556 106.725 55.7648C106.725 56.0034 106.707 56.2071 106.666 56.3875H102.637C102.678 56.8777 102.861 57.2612 103.196 57.5353C103.532 57.8094 103.956 57.9427 104.468 57.9427C104.643 57.9427 104.81 57.929 104.968 57.9017C105.12 57.8757 105.264 57.8374 105.399 57.7862C105.676 57.6809 105.906 57.5531 106.077 57.4013L106.359 58.1232ZM104.245 54.2561C103.762 54.2561 103.379 54.3839 103.09 54.6457C102.805 54.9035 102.623 55.2555 102.578 55.6363H105.759C105.735 55.2056 105.594 54.8679 105.329 54.6232C105.285 54.5822 105.238 54.5453 105.189 54.5118C105.142 54.4796 105.093 54.4509 105.042 54.4249C105.003 54.4051 104.963 54.3873 104.921 54.3709C104.725 54.2944 104.498 54.2561 104.245 54.2561ZM107.991 53.5041H108.839L110.854 56.0731L112.762 53.5041H113.587V58.6885H112.656V54.9082L110.842 57.3138H110.806L108.922 54.9076V58.6878H107.991V53.5041ZM115.712 53.6607C115.844 53.6046 115.98 53.5581 116.119 53.5219C116.42 53.4406 116.732 53.3941 117.062 53.3941C117.384 53.3941 117.664 53.4289 117.903 53.4987C118.063 53.5452 118.204 53.6074 118.326 53.6846C118.443 53.7578 118.542 53.8453 118.623 53.9471C118.754 54.1078 118.856 54.2985 118.929 54.5186C119.024 54.8023 119.07 55.1345 119.07 55.5146V58.6947H118.199V58.0247C118.046 58.223 117.834 58.3973 117.568 58.5491C117.304 58.7001 116.956 58.776 116.52 58.776C116.204 58.776 115.929 58.7165 115.694 58.5976C115.643 58.5716 115.594 58.5429 115.546 58.5115C115.514 58.4896 115.482 58.4663 115.452 58.4424C115.418 58.4158 115.385 58.387 115.354 58.357C115.059 58.0774 114.912 57.6809 114.912 57.1744C114.909 56.9303 114.961 56.6897 115.065 56.4689C115.162 56.2679 115.303 56.0909 115.477 55.9514C115.648 55.8113 115.86 55.706 116.107 55.6363C116.156 55.6226 116.206 55.6096 116.256 55.598L116.331 55.5816L116.415 55.5665C116.568 55.5399 116.727 55.5255 116.891 55.5255C117.117 55.5283 117.341 55.5515 117.563 55.5959C117.791 55.6356 118.008 55.7251 118.199 55.8584C118.199 55.7552 118.197 55.6554 118.192 55.559L118.183 55.4175C118.176 55.341 118.168 55.2664 118.158 55.194C118.128 54.9903 118.075 54.816 117.993 54.6758C117.954 54.6102 117.907 54.5494 117.852 54.496C117.827 54.4707 117.799 54.4468 117.77 54.4249C117.75 54.4106 117.729 54.3962 117.708 54.3832C117.684 54.3689 117.659 54.3559 117.633 54.3436C117.474 54.2622 117.268 54.2205 117.009 54.2205C116.685 54.2205 116.414 54.2561 116.202 54.332L116.089 54.3737L115.994 54.4099L115.882 54.4557C115.776 54.5001 115.671 54.548 115.566 54.5999L115.318 53.8651C115.445 53.7872 115.576 53.7188 115.712 53.6607ZM116.845 57.9427C117.186 57.9427 117.463 57.8737 117.675 57.7219C117.866 57.5948 118.041 57.4437 118.193 57.2728V56.6145C118.09 56.5407 117.981 56.4791 117.864 56.4292C117.799 56.4012 117.731 56.3773 117.662 56.3575C117.614 56.3438 117.565 56.3315 117.514 56.3205C117.457 56.3082 117.398 56.2987 117.338 56.2912C117.235 56.2782 117.127 56.2713 117.015 56.2713C116.874 56.2713 116.739 56.2884 116.603 56.3233C116.536 56.3397 116.47 56.3622 116.407 56.391C116.351 56.4162 116.296 56.4463 116.244 56.4812C116.144 56.5509 116.056 56.6384 115.99 56.7492L115.977 56.7731C115.967 56.7915 115.958 56.81 115.95 56.8291C115.941 56.8503 115.934 56.8722 115.927 56.8948C115.921 56.9153 115.916 56.9365 115.912 56.9583C115.901 57.011 115.896 57.067 115.896 57.1272C115.896 57.3719 115.978 57.5702 116.144 57.7212C116.239 57.8053 116.357 57.8661 116.499 57.9024C116.602 57.929 116.717 57.9427 116.845 57.9427ZM127.818 51.2332C127.653 51.4486 127.477 51.5942 127.288 51.681C127.099 51.7685 126.894 51.8273 126.67 51.8738C126.502 51.9086 126.326 51.9408 126.142 51.9743L125.957 52.0084C125.678 52.0597 125.407 52.1479 125.15 52.2703C125.052 52.312 124.959 52.3625 124.871 52.4206C124.808 52.4623 124.748 52.5075 124.691 52.5567L124.622 52.6189L124.581 52.6606L124.537 52.7064C124.506 52.744 124.475 52.7823 124.445 52.8212C124.387 52.8985 124.333 52.9785 124.283 53.0619C124.234 53.1459 124.189 53.2334 124.149 53.3244C124.048 53.5506 123.972 53.7906 123.919 54.0408C123.866 54.2916 123.837 54.5357 123.819 54.7743H123.842C123.925 54.5883 124.042 54.4249 124.184 54.2787C124.328 54.131 124.493 54.0038 124.673 53.9006C124.712 53.8781 124.752 53.8562 124.792 53.835C124.837 53.8118 124.884 53.7899 124.93 53.7694C125.038 53.7222 125.148 53.6826 125.262 53.6504C125.474 53.5923 125.692 53.5629 125.916 53.5629C126.135 53.5602 126.352 53.5841 126.564 53.634C126.688 53.6634 126.81 53.7017 126.929 53.7489C127.221 53.8651 127.485 54.0449 127.701 54.2739C127.916 54.5077 128.081 54.7831 128.184 55.0832C128.296 55.3984 128.355 55.7532 128.355 56.1428C128.355 56.5044 128.29 56.8476 128.154 57.1682C128.099 57.3063 128.032 57.4382 127.954 57.5626C127.853 57.7267 127.734 57.8771 127.601 58.0131C127.359 58.2592 127.07 58.4547 126.752 58.5894C126.423 58.7295 126.057 58.8054 125.663 58.8054C125.233 58.8054 124.85 58.7295 124.508 58.5785C124.166 58.4274 123.877 58.2168 123.636 57.9372C123.394 57.6631 123.213 57.3261 123.082 56.9235C122.953 56.5215 122.888 56.0738 122.888 55.5782C122.888 55.194 122.911 54.7927 122.959 54.373C123.005 53.9615 123.098 53.5575 123.235 53.1671C123.371 52.7823 123.571 52.433 123.825 52.1247C124.078 51.8157 124.414 51.5716 124.832 51.3905L124.924 51.3508C124.968 51.3324 125.013 51.3146 125.059 51.2982C125.142 51.2681 125.225 51.2408 125.309 51.2162C125.36 51.2018 125.411 51.1881 125.462 51.1758C125.526 51.1601 125.591 51.1464 125.657 51.1348L125.979 51.0794L126.152 51.0494L126.328 51.0179C126.432 51.0001 126.534 50.9762 126.635 50.9461C126.714 50.9229 126.793 50.8962 126.87 50.8662C126.912 50.8498 126.954 50.8286 126.995 50.8046L127.047 50.7705C127.142 50.7041 127.23 50.6153 127.312 50.5052L127.818 51.2332ZM123.884 55.7532C123.878 56.0608 123.922 56.3677 124.013 56.6617C124.091 56.9105 124.213 57.1429 124.372 57.3494C124.525 57.5339 124.716 57.6829 124.932 57.7862C125.15 57.8908 125.386 57.9434 125.645 57.9434C125.841 57.9434 126.02 57.9167 126.188 57.8627L126.249 57.8422C126.282 57.8306 126.314 57.8176 126.346 57.8033C126.55 57.7171 126.734 57.59 126.888 57.4314C127.042 57.2721 127.162 57.0834 127.242 56.877C127.323 56.6678 127.371 56.4402 127.371 56.19C127.371 55.6834 127.23 55.2637 126.94 54.9267C126.844 54.8146 126.733 54.7216 126.608 54.6471C126.505 54.5856 126.392 54.5371 126.269 54.5008C126.097 54.4502 125.905 54.4249 125.692 54.4249C125.252 54.4215 124.824 54.5671 124.479 54.8385C124.325 54.9616 124.196 55.101 124.096 55.2582C124.061 55.3102 124.029 55.3642 124.002 55.4203C123.98 55.4654 123.959 55.5112 123.942 55.5577C123.918 55.6212 123.899 55.6869 123.884 55.7532ZM134.563 53.5048H135.494V58.6892H134.563V53.5048ZM130.628 53.5048H129.697H129.692V58.6947H131.382C131.467 58.6947 131.548 58.6919 131.627 58.6871C131.676 58.6844 131.725 58.6803 131.772 58.6755C131.814 58.6714 131.856 58.6666 131.897 58.6605C132.09 58.6331 132.263 58.5894 132.419 58.532C132.484 58.5074 132.547 58.4814 132.606 58.4534L132.683 58.4151L132.743 58.3829C132.785 58.3583 132.826 58.3324 132.865 58.305C132.889 58.2879 132.913 58.2702 132.937 58.2524C132.965 58.2298 132.992 58.2066 133.019 58.1827C133.044 58.1601 133.068 58.1362 133.09 58.1122C133.255 57.9372 133.379 57.7452 133.45 57.5244C133.495 57.3931 133.526 57.2619 133.544 57.1286C133.556 57.0363 133.562 56.9426 133.562 56.8476C133.562 56.7977 133.56 56.7485 133.557 56.6993C133.554 56.6562 133.55 56.6138 133.545 56.5714C133.528 56.4374 133.5 56.3069 133.462 56.1777C133.397 55.963 133.285 55.7709 133.126 55.6076C132.967 55.4442 132.755 55.3109 132.49 55.2111C132.224 55.1126 131.894 55.06 131.488 55.06H130.628V53.5048ZM131.306 57.8265H130.628V55.9275V55.9152H131.318C131.404 55.9152 131.486 55.9179 131.564 55.9241C131.683 55.9336 131.791 55.9507 131.887 55.9746C131.96 55.9924 132.026 56.015 132.087 56.041C132.163 56.0745 132.228 56.1141 132.284 56.1606C132.346 56.2153 132.399 56.2775 132.441 56.3486C132.488 56.4265 132.523 56.5147 132.545 56.6124C132.563 56.6938 132.572 56.782 132.572 56.877C132.572 57.186 132.478 57.4184 132.289 57.5818C132.207 57.6529 132.098 57.7089 131.962 57.7493C131.787 57.8005 131.568 57.8265 131.306 57.8265ZM141.65 57.942C141.426 58.2278 141.131 58.4438 140.778 58.5894C140.415 58.7364 140.027 58.8116 139.635 58.8102C139.246 58.8157 138.859 58.7507 138.492 58.6188C138.163 58.4992 137.862 58.3125 137.609 58.0712C137.513 57.9783 137.424 57.8778 137.345 57.7711L137.28 57.6802C137.257 57.646 137.235 57.6112 137.213 57.5756L137.183 57.5257C137.164 57.4922 137.146 57.458 137.128 57.4232C137.104 57.3774 137.081 57.3309 137.06 57.283L137.031 57.214C136.891 56.8606 136.821 56.4826 136.826 56.1018C136.826 55.7238 136.89 55.3738 137.026 55.0422C137.155 54.71 137.343 54.4249 137.579 54.1857C137.815 53.941 138.097 53.755 138.416 53.6094C138.752 53.4618 139.115 53.3879 139.482 53.3934C139.9 53.3934 140.289 53.446 140.642 53.5506C140.996 53.6552 141.296 53.8302 141.543 54.0756L141.114 54.8037C141.027 54.7244 140.933 54.6533 140.834 54.5911C140.785 54.5603 140.735 54.5316 140.683 54.5049C140.643 54.4844 140.602 54.4653 140.56 54.4468L140.481 54.4147L140.395 54.3832C140.142 54.3019 139.877 54.2609 139.612 54.2616C139.517 54.2616 139.424 54.2691 139.332 54.2834C139.197 54.3053 139.064 54.3436 138.934 54.3955C138.719 54.4817 138.524 54.6088 138.357 54.7688C138.303 54.8221 138.252 54.8788 138.205 54.9383L138.164 54.9923C138.083 55.1038 138.015 55.2241 137.962 55.3512C137.862 55.5775 137.815 55.8284 137.815 56.1079C137.815 56.393 137.868 56.6494 137.968 56.8708C138.068 57.0978 138.204 57.2906 138.375 57.4533C138.545 57.6166 138.745 57.7383 138.975 57.8204C139.206 57.9017 139.447 57.9489 139.706 57.9489C139.897 57.9489 140.076 57.9256 140.243 57.8798C140.285 57.8682 140.326 57.8552 140.367 57.8409C140.433 57.8183 140.498 57.7916 140.56 57.7616C140.805 57.6433 141.025 57.4792 141.208 57.2789L141.65 57.942ZM142.133 53.5041H146.904V54.4249H144.983V58.6878H144.053V54.4249H142.133V53.5041ZM147.917 53.5055H148.848V54.1166C149.024 53.9061 149.278 53.7386 149.602 53.5985C149.926 53.4583 150.267 53.3886 150.632 53.3886C150.691 53.3872 150.75 53.3886 150.809 53.392C150.927 53.3989 151.045 53.4139 151.161 53.4371C151.325 53.47 151.485 53.5199 151.639 53.5862C151.93 53.7079 152.19 53.8931 152.4 54.1283C152.613 54.3696 152.777 54.6505 152.883 54.9547C152.937 55.1106 152.979 55.274 153.008 55.4455C153.038 55.6274 153.053 55.8174 153.053 56.0157C153.053 56.4053 152.988 56.7731 152.859 57.1156C152.729 57.4594 152.547 57.7506 152.305 58.0022C152.06 58.2524 151.768 58.452 151.446 58.5901C151.11 58.7295 150.738 58.8047 150.326 58.8047C150.049 58.8047 149.778 58.776 149.519 58.7179C149.26 58.6598 149.036 58.5723 148.848 58.4499V60.995H147.917V53.5055ZM150.362 54.2561C150.05 54.2561 149.761 54.3265 149.496 54.4666C149.231 54.6061 149.013 54.7749 148.849 54.9725V57.5414C149.06 57.6829 149.292 57.7896 149.537 57.8566C149.761 57.9147 149.997 57.9434 150.25 57.9434C150.511 57.9482 150.77 57.8983 151.01 57.7978C151.226 57.7096 151.421 57.5763 151.581 57.4075C151.741 57.2366 151.864 57.0342 151.941 56.8134C152.023 56.5803 152.071 56.3301 152.071 56.0505C152.071 55.9917 152.069 55.9336 152.065 55.8769L152.057 55.7846L152.05 55.719L152.04 55.6513L152.028 55.5864L152.011 55.5105C151.997 55.4483 151.979 55.3874 151.959 55.328C151.888 55.1072 151.776 54.9205 151.629 54.7572C151.481 54.5945 151.305 54.4721 151.093 54.3846C150.874 54.2971 150.633 54.2561 150.362 54.2561ZM159.262 53.5048H160.193V58.6885H159.262V53.5048ZM155.322 53.5048H154.391H154.385V58.694H156.075C156.488 58.694 156.829 58.6359 157.112 58.532C157.395 58.4267 157.619 58.2872 157.784 58.1122C157.949 57.9372 158.072 57.7452 158.143 57.5237C158.219 57.3029 158.255 57.0807 158.255 56.8476C158.255 56.6145 158.219 56.3937 158.154 56.1777C158.09 55.963 157.978 55.7703 157.819 55.6076C157.66 55.4442 157.448 55.3102 157.183 55.2111C156.917 55.1126 156.588 55.06 156.181 55.06H155.322V53.5048ZM156.006 57.8265H155.328V55.9275V55.9152H156.017C156.465 55.9152 156.789 55.9972 156.983 56.1606C157.172 56.324 157.272 56.5619 157.272 56.877C157.272 57.186 157.177 57.4184 156.989 57.5811C156.801 57.7452 156.47 57.8265 156.006 57.8265ZM164.658 56.0034L166.649 58.6885H165.506L163.969 56.5912L162.408 58.6885H161.324L163.303 56.0492L161.441 53.5041H162.585L164.004 55.4613L165.447 53.5041H166.531L164.658 56.0034ZM82.8863 65.0951H80.0296V69.4175H79.0986V64.2338H83.8167V69.4175H82.8863V65.0951ZM89.1002 65.1533H87.2627L87.2032 66.0269C87.1626 66.4924 87.1127 66.8998 87.0505 67.2512C87.0135 67.4583 86.9725 67.6463 86.9267 67.8152C86.8027 68.2698 86.6495 68.6191 86.4732 68.8638C86.2968 69.1085 86.09 69.2774 85.8542 69.3594C85.6108 69.4476 85.3534 69.4906 85.0947 69.4872L85.0239 68.5897C85.1241 68.5951 85.2417 68.5726 85.3712 68.5145C85.5014 68.4564 85.631 68.3279 85.754 68.1365C85.8781 67.9375 85.9902 67.6579 86.09 67.297C86.1902 66.9299 86.2554 66.4528 86.2903 65.8519L86.385 64.2386H90.0313V69.423H89.1002V65.1533ZM91.7389 64.5886C91.9686 64.443 92.2396 64.3268 92.5404 64.2454C92.8473 64.1607 93.1642 64.1176 93.4827 64.1176C94.2248 64.1176 94.7491 64.3029 95.0437 64.6706C95.3438 65.0377 95.4918 65.562 95.4918 66.2374V69.4175H94.6195V68.7476C94.4661 68.9458 94.2542 69.1208 93.9896 69.2719C93.724 69.4237 93.3771 69.4995 92.941 69.4995C92.458 69.4995 92.0687 69.3594 91.7748 69.0798C91.6131 68.9274 91.4962 68.7394 91.4231 68.5172C91.3629 68.3333 91.3328 68.1269 91.3328 67.8979C91.3325 67.861 91.3332 67.824 91.3352 67.7871C91.3397 67.7058 91.3503 67.6258 91.367 67.5472C91.3926 67.4248 91.4323 67.3059 91.4856 67.1924C91.5827 66.9914 91.7235 66.8144 91.8978 66.6749C91.9908 66.5984 92.0957 66.5327 92.2119 66.4774C92.3097 66.4309 92.4153 66.3919 92.5284 66.3598C92.7755 66.2894 93.0353 66.2491 93.3118 66.2491C93.5374 66.2518 93.762 66.275 93.9831 66.3188C94.0679 66.3338 94.1509 66.3557 94.2316 66.3837C94.369 66.4316 94.4996 66.4979 94.6195 66.5806C94.6195 66.342 94.6076 66.1212 94.5782 65.9168C94.5625 65.8088 94.5402 65.709 94.5105 65.6181C94.4951 65.5716 94.478 65.5272 94.4589 65.4855C94.4449 65.4554 94.4298 65.426 94.4138 65.3987C94.3311 65.2585 94.2135 65.1423 94.0539 65.0664C93.9503 65.0138 93.8273 64.9776 93.682 64.9591L93.6109 64.9516C93.5535 64.9468 93.493 64.9441 93.4294 64.9441C93.1061 64.9441 92.8343 64.9796 92.6224 65.0548C92.5609 65.0767 92.4994 65.0999 92.4378 65.1239C92.2878 65.1826 92.1374 65.2483 91.9867 65.3228L91.7389 64.5886ZM93.2712 68.6662C93.4848 68.6662 93.6731 68.6389 93.8358 68.5815C93.9336 68.5466 94.0221 68.5015 94.1014 68.4441C94.2928 68.3176 94.4671 68.1665 94.6202 67.9956V67.3373C94.2962 67.1049 93.9011 66.9949 93.442 66.9949C93.3884 66.9949 93.3347 66.9969 93.2814 67.0017C93.1966 67.0099 93.1126 67.0249 93.0298 67.0461C92.8938 67.0817 92.7708 67.1336 92.6706 67.204C92.5705 67.2738 92.4816 67.3613 92.4173 67.472C92.3521 67.5827 92.3227 67.7051 92.3227 67.8507C92.3227 68.0948 92.4054 68.293 92.5705 68.4441C92.7352 68.5904 92.9646 68.6662 93.2712 68.6662ZM96.4102 64.2338H101.182V65.1539H99.2608V69.4175H98.3304V65.1546H96.4102V64.2338ZM105.949 69.1926C105.818 69.261 105.678 69.3184 105.529 69.3649C105.176 69.4756 104.822 69.5344 104.474 69.5344C104.079 69.5392 103.686 69.4742 103.314 69.3416C102.967 69.2138 102.672 69.0326 102.43 68.7941C102.189 68.5555 101.995 68.2698 101.865 67.9382C101.735 67.6053 101.664 67.2334 101.664 66.8253C101.661 66.4637 101.723 66.1048 101.847 65.7651C101.9 65.6167 101.967 65.4745 102.047 65.3399C102.139 65.1854 102.247 65.0405 102.371 64.9092C102.61 64.6617 102.897 64.4656 103.214 64.3323C103.55 64.1921 103.932 64.1169 104.369 64.1169C104.693 64.1149 105.015 64.1743 105.317 64.2919C105.606 64.3992 105.87 64.564 106.094 64.7752C106.316 64.9885 106.492 65.2442 106.613 65.5265C106.742 65.8177 106.807 66.1383 106.807 66.4931C106.807 66.7323 106.789 66.9367 106.749 67.1165H102.719C102.761 67.606 102.943 67.9908 103.279 68.2643C103.615 68.5377 104.039 68.6717 104.551 68.6717C104.893 68.6717 105.205 68.6198 105.481 68.5152C105.759 68.4099 105.988 68.2821 106.159 68.1296L106.442 68.8522C106.292 68.9862 106.129 69.0996 105.949 69.1926ZM104.322 64.9789C103.838 64.9789 103.456 65.1074 103.167 65.3693C102.882 65.6263 102.7 65.9783 102.655 66.3598H105.836C105.812 65.9284 105.671 65.5908 105.406 65.346C105.141 65.1074 104.781 64.9789 104.322 64.9789ZM108.439 64.2338H107.261L109.187 66.7323L107.173 69.4175H108.315L110.235 66.733L108.439 64.2338ZM111.396 64.2338H110.465V69.4175H111.396V64.2338ZM112.674 66.7323L114.724 69.4175H113.569L111.625 66.7323L113.433 64.2331H114.589L112.674 66.7323ZM119.89 68.8522C119.63 69.0846 119.33 69.2541 118.977 69.3649C118.636 69.4742 118.28 69.5317 117.923 69.5344C117.527 69.5392 117.134 69.4742 116.762 69.3416C116.414 69.2138 116.12 69.0326 115.879 68.7941C115.637 68.5555 115.442 68.2698 115.313 67.9382C115.183 67.6053 115.113 67.2334 115.113 66.8253C115.109 66.4637 115.171 66.1048 115.295 65.7651C115.409 65.4465 115.587 65.1546 115.82 64.9092C116.058 64.6617 116.345 64.4656 116.662 64.3323C116.998 64.1921 117.381 64.1169 117.816 64.1169C118.141 64.1149 118.462 64.1743 118.765 64.2919C119.054 64.3992 119.318 64.564 119.542 64.7752C119.764 64.9885 119.94 65.2442 120.06 65.5265C120.191 65.8177 120.255 66.1383 120.255 66.4931C120.255 66.7323 120.238 66.9367 120.196 67.1165H116.167C116.208 67.606 116.391 67.9908 116.726 68.2643C117.062 68.5377 117.486 68.6717 117.999 68.6717C118.341 68.6717 118.653 68.6198 118.93 68.5152C119.206 68.4099 119.436 68.2821 119.607 68.1296L119.89 68.8522ZM117.77 64.9789C117.287 64.9789 116.904 65.1074 116.615 65.3693C116.33 65.6263 116.148 65.9783 116.102 66.3598H119.284C119.26 65.9284 119.119 65.5908 118.854 65.346C118.588 65.1074 118.224 64.9789 117.77 64.9789ZM123.386 62.2541C123.536 62.4127 123.751 62.492 124.031 62.492C124.55 62.492 124.838 62.1892 124.88 61.5835H125.751C125.751 61.8159 125.71 62.0258 125.628 62.2241C125.546 62.4223 125.427 62.5911 125.28 62.7306C125.214 62.7908 125.144 62.8468 125.068 62.8974C124.969 62.9644 124.859 63.0218 124.739 63.0683C124.619 63.1175 124.491 63.1517 124.355 63.1729C124.25 63.1886 124.141 63.1961 124.025 63.1961C123.914 63.1961 123.808 63.19 123.708 63.1777C123.547 63.1578 123.4 63.1223 123.266 63.0683C123.048 62.9815 122.859 62.8707 122.712 62.7306C122.623 62.6465 122.547 62.5508 122.484 62.4449C122.442 62.3758 122.407 62.302 122.376 62.2241C122.333 62.114 122.302 61.9998 122.282 61.8802C122.267 61.7852 122.259 61.6868 122.259 61.5835H123.136C123.159 61.8795 123.243 62.1031 123.386 62.2541ZM122.447 69.4175H121.516V64.2331H122.447V68.0948L125.474 64.2331H126.405V69.4175H125.474V65.5552L122.447 69.4175Z" fill="white"/>
</svg>
